<?xml version="1.0" encoding="UTF-8"?>
<svg version="1.1" xmlns="http://www.w3.org/2000/svg" width="512" height="512">
<path d="M0 0 C1.48161621 0.35408936 1.48161621 0.35408936 2.99316406 0.71533203 C54.86228845 13.61193542 99.10142944 46.54008196 127 92 C142 117.13438881 142 117.13438881 142 125 C142.81791016 125.20302734 142.81791016 125.20302734 143.65234375 125.41015625 C154.00324565 128.3650291 161.26928907 135.02634878 167 144 C171.99238879 153.47222914 171.586713 163.22565762 171.53125 173.625 C171.53395077 175.42138885 171.53783802 177.21777626 171.54284668 179.01416016 C171.54871427 182.76283813 171.54026786 186.51113256 171.52148438 190.25976562 C171.49869639 195.03751161 171.51183428 199.81435845 171.53577423 204.59207153 C171.55030676 208.29669836 171.54559227 212.00111599 171.53526306 215.70574951 C171.53261632 217.46620798 171.53579231 219.22668616 171.54518127 220.98712158 C171.60389554 235.08631811 170.18886793 246.34891518 160 257 C154.54357633 262.12724271 149.27160472 265.19499174 142 267 C141.89558594 267.67546875 141.79117187 268.3509375 141.68359375 269.046875 C132.19777857 310.02559658 93.11333955 346.63520229 59 368 C58.40058594 368.37866211 57.80117188 368.75732422 57.18359375 369.14746094 C38.18514302 380.9753301 16.77337343 388.27528323 -5 393 C-6.13743652 393.26466064 -6.13743652 393.26466064 -7.29785156 393.53466797 C-33.1904471 399.38980667 -64.34860368 398.13326383 -90 392 C-90.98774414 391.76394043 -91.97548828 391.52788086 -92.99316406 391.28466797 C-145.92346097 378.12421742 -190.01365285 344.39373707 -218.21191406 298.00634766 C-232 274.86006042 -232 274.86006042 -232 267 C-232.54527344 266.86464844 -233.09054688 266.72929687 -233.65234375 266.58984375 C-244.00324565 263.6349709 -251.26928907 256.97365122 -257 248 C-261.99238879 238.52777086 -261.586713 228.77434238 -261.53125 218.375 C-261.53395077 216.57861115 -261.53783802 214.78222374 -261.54284668 212.98583984 C-261.54871427 209.23716187 -261.54026786 205.48886744 -261.52148438 201.74023438 C-261.49869639 196.96248839 -261.51183428 192.18564155 -261.53577423 187.40792847 C-261.55030676 183.70330164 -261.54559227 179.99888401 -261.53526306 176.29425049 C-261.53261632 174.53379202 -261.53579231 172.77331384 -261.54518127 171.01287842 C-261.60389554 156.91368189 -260.18886793 145.65108482 -250 135 C-244.54357633 129.87275729 -239.27160472 126.80500826 -232 125 C-231.89558594 124.32453125 -231.79117188 123.6490625 -231.68359375 122.953125 C-222.19777857 81.97440342 -183.11333955 45.36479771 -149 24 C-148.10087891 23.43200684 -148.10087891 23.43200684 -147.18359375 22.85253906 C-128.18514302 11.0246699 -106.77337343 3.72471677 -85 -1 C-84.24170898 -1.17644043 -83.48341797 -1.35288086 -82.70214844 -1.53466797 C-56.8095529 -7.38980667 -25.65139632 -6.13326383 0 0 Z M-53.92578125 18.95703125 C-72.73870069 46.55639894 -81 90.9710094 -81 124 C-57.24 124 -33.48 124 -9 124 C-10.69427721 106.78955734 -10.69427721 106.78955734 -13.25 89.75 C-13.46543457 88.52619629 -13.68086914 87.30239258 -13.90283203 86.04150391 C-20.31193172 45.80762835 -20.31193172 45.80762835 -42 13 C-48.28360289 12.24897177 -50.13364843 14.29812522 -53.92578125 18.95703125 Z M-15 21 C-14.82186768 21.53439697 -14.64373535 22.06879395 -14.46020508 22.61938477 C-13.93092446 24.20722661 -13.4020726 25.79521141 -12.87353516 27.38330078 C-12.31647127 29.05200139 -11.75654795 30.71975206 -11.19287109 32.38623047 C-1.08422924 62.36928264 3.54189078 92.79323547 8 124 C21.86 124 35.72 124 50 124 C46.61694158 110.30051978 46.61694158 110.30051978 42.25 97 C41.90710938 96.06994141 41.56421875 95.13988281 41.2109375 94.18164062 C38.04807256 85.7954312 34.27961609 77.86563923 30 70 C29.68063477 69.39752441 29.36126953 68.79504883 29.03222656 68.17431641 C24.18098401 59.04068259 18.52834327 51.00866907 12 43 C11.57589844 42.47583496 11.15179688 41.95166992 10.71484375 41.41162109 C4.29089034 33.55931138 -5.27498633 24.24167122 -15 21 Z M-76 21 C-83.29120321 25.28894306 -89.25971008 29.79784767 -95 36 C-95.845625 36.825 -96.69125 37.65 -97.5625 38.5 C-116.80820876 58.23918847 -140 95.70711464 -140 124 C-126.14 124 -112.28 124 -98 124 C-96.6696875 114.8425 -96.6696875 114.8425 -95.3125 105.5 C-91.38155429 79.06777884 -86.87579956 52.67115981 -76.74047852 27.79492188 C-76.10793829 26.21661135 -75.54662099 24.61008594 -75 23 C-75.495 22.01 -75.495 22.01 -76 21 Z M18 24 C18.84952934 25.17004774 19.70500521 26.3357773 20.5625 27.5 C21.03816406 28.1496875 21.51382812 28.799375 22.00390625 29.46875 C23.72096055 31.64614958 25.50296461 33.68558291 27.35546875 35.74609375 C30.9072248 39.78501476 33.89409247 44.01103485 36.75 48.5625 C37.25877686 49.37332031 37.76755371 50.18414062 38.29174805 51.01953125 C51.68124893 72.8765616 60.18127942 96.44202756 66.44677734 121.16845703 C66.84267224 123.00015282 66.84267224 123.00015282 68 124 C69.71865409 124.0935919 71.44115744 124.11744611 73.16235352 124.11352539 C74.81395226 124.11341209 74.81395226 124.11341209 76.49891663 124.11329651 C78.29576149 124.10555458 78.29576149 124.10555458 80.12890625 124.09765625 C81.34827377 124.0962413 82.5676413 124.09482635 83.82395935 124.09336853 C87.7368307 124.08774967 91.64964581 124.07519396 95.5625 124.0625 C98.20768147 124.05748743 100.85286383 124.0529241 103.49804688 124.04882812 C109.99871726 124.03777411 116.49935461 124.02101764 123 124 C122.39258617 120.78325901 121.74222348 118.11659681 120.21484375 115.21484375 C119.85342285 114.52559814 119.49200195 113.83635254 119.11962891 113.1262207 C118.5344751 112.04280396 118.5344751 112.04280396 117.9375 110.9375 C117.53192871 110.18235107 117.12635742 109.42720215 116.70849609 108.64916992 C104.99815681 87.14975459 88.62108549 66.75569437 69 52 C67.87215245 51.12140609 66.74456223 50.24248179 65.6171875 49.36328125 C43.62341536 32.25701203 43.62341536 32.25701203 18 24 Z M-110 24 C-112.77791433 25.0394384 -115.43090687 26.1466427 -118.125 27.375 C-118.93396729 27.74222168 -119.74293457 28.10944336 -120.57641602 28.48779297 C-146.74786419 40.5669229 -170.45818196 57.94314068 -188 81 C-188.78375 81.95648438 -189.5675 82.91296875 -190.375 83.8984375 C-205.58066971 102.41120201 -205.58066971 102.41120201 -213 124 C-194.85 124 -176.7 124 -158 124 C-156.24134215 118.72402646 -154.56587028 113.55182574 -153.06176758 108.21704102 C-144.36429692 77.76507212 -130.27179435 47.8904553 -108 25 C-108.99 24.505 -108.99 24.505 -110 24 Z M-238 147 C-245.74462026 156.00262964 -245.30417185 167.30952046 -245.265625 178.5625 C-245.26697562 179.96297269 -245.26891944 181.36344492 -245.27142334 182.76391602 C-245.27435596 185.68542995 -245.27013742 188.6068208 -245.26074219 191.52832031 C-245.2493487 195.25012515 -245.25591823 198.97164139 -245.26788712 202.69343567 C-245.27515634 205.58127977 -245.27279471 208.46905682 -245.26763153 211.35690308 C-245.26630899 212.72826167 -245.2678931 214.0996266 -245.27259064 215.47097778 C-245.45010672 230.17817696 -245.45010672 230.17817696 -239 243 C-231.76588316 250.18244458 -224.95119931 252.12189508 -214.78953838 252.12863445 C-212.94071152 252.13347112 -212.94071152 252.13347112 -211.05453461 252.1384055 C-209.6949409 252.13693451 -208.33534729 252.1353668 -206.97575378 252.13371277 C-205.52505936 252.13558167 -204.07436543 252.13788268 -202.62367231 252.14057809 C-198.64124418 252.14669274 -194.65883706 252.14656289 -190.67640531 252.14538372 C-186.37977168 252.14517963 -182.08314478 252.15069926 -177.78651428 252.15544128 C-169.37012285 252.16374654 -160.95373842 252.16649607 -152.53734323 252.16705366 C-145.69593342 252.16752888 -138.85452592 252.16958389 -132.01311684 252.17275429 C-112.61534552 252.18156047 -93.21757974 252.18617371 -73.81980642 252.18542381 C-72.25130815 252.18536388 -72.25130815 252.18536388 -70.65112305 252.18530273 C-69.60418045 252.18526185 -68.55723785 252.18522097 -67.47856972 252.18517885 C-50.51038978 252.18477238 -33.54223202 252.19434235 -16.5740585 252.2084411 C0.8498377 252.22280425 18.27372307 252.22971132 35.69762534 252.22884732 C45.4793785 252.22851534 55.26110839 252.23126322 65.04285622 252.24202538 C73.37102557 252.25112956 81.69916112 252.25330629 90.0273333 252.24651595 C94.27549762 252.24325036 98.52359706 252.24319551 102.77175522 252.2518692 C106.66346587 252.25973332 110.5550602 252.25830367 114.44676801 252.24958507 C115.85185441 252.24804989 117.2569495 252.24986692 118.66202567 252.25544515 C133.26843431 252.42875076 133.26843431 252.42875076 146 246 C153.25215469 238.69567153 155.10964273 231.83322092 155.14526367 221.58666992 C155.15164352 220.33484421 155.15802338 219.08301849 155.16459656 217.79325867 C155.16612571 216.43899576 155.16723941 215.08473233 155.16796875 213.73046875 C155.17118691 212.32570869 155.1745514 210.92094895 155.17805481 209.51618958 C155.18402721 206.5767845 155.18589669 203.63740875 155.18530273 200.69799805 C155.18520128 196.95258721 155.19884413 193.20736668 155.21607494 189.46200085 C155.22725669 186.56129614 155.22922005 183.66063653 155.22869301 180.75991249 C155.2298642 179.38017433 155.23423695 178.00043467 155.24202538 176.620718 C155.46127694 161.86597373 155.46127694 161.86597373 149 149 C141.76588316 141.81755542 134.95119931 139.87810492 124.78953838 139.87136555 C122.94071152 139.86652888 122.94071152 139.86652888 121.05453461 139.8615945 C119.6949409 139.86306549 118.33534729 139.8646332 116.97575378 139.86628723 C115.52505936 139.86441833 114.07436543 139.86211732 112.62367231 139.85942191 C108.64124418 139.85330726 104.65883706 139.85343711 100.67640531 139.85461628 C96.37977168 139.85482037 92.08314478 139.84930074 87.78651428 139.84455872 C79.37012285 139.83625346 70.95373842 139.83350393 62.53734323 139.83294634 C55.69593342 139.83247112 48.85452592 139.83041611 42.01311684 139.82724571 C22.61534552 139.81843953 3.21757974 139.81382629 -16.18019358 139.81457619 C-17.74869185 139.81463612 -17.74869185 139.81463612 -19.34887695 139.81469727 C-20.39581955 139.81473815 -21.44276215 139.81477903 -22.52143028 139.81482115 C-39.48961022 139.81522762 -56.45776798 139.80565765 -73.4259415 139.7915589 C-90.8498377 139.77719575 -108.27372307 139.77028868 -125.69762534 139.77115268 C-135.4793785 139.77148466 -145.26110839 139.76873678 -155.04285622 139.75797462 C-163.37102557 139.74887044 -171.69916112 139.74669371 -180.0273333 139.75348405 C-184.27549762 139.75674964 -188.52359706 139.75680449 -192.77175522 139.7481308 C-196.66346587 139.74026668 -200.5550602 139.74169633 -204.44676801 139.75041493 C-205.85185441 139.75195011 -207.2569495 139.75013308 -208.66202567 139.74455485 C-219.26005004 139.70527916 -229.57986845 139.75648072 -238 147 Z M-213 268 C-212.39258617 271.21674099 -211.74222348 273.88340319 -210.21484375 276.78515625 C-209.85342285 277.47440186 -209.49200195 278.16364746 -209.11962891 278.8737793 C-208.72952637 279.59605713 -208.33942383 280.31833496 -207.9375 281.0625 C-207.53192871 281.81764893 -207.12635742 282.57279785 -206.70849609 283.35083008 C-194.99815681 304.85024541 -178.62108549 325.24430563 -159 340 C-157.87215245 340.87859391 -156.74456223 341.75751821 -155.6171875 342.63671875 C-143.66639488 351.81575256 -130.74908033 359.05172808 -117 365.1875 C-116.32332275 365.49139648 -115.64664551 365.79529297 -114.94946289 366.10839844 C-113.32633549 366.80477448 -111.66531862 367.41161574 -110 368 C-109.34 367.67 -108.68 367.34 -108 367 C-108.58265625 366.41476562 -109.1653125 365.82953125 -109.765625 365.2265625 C-134.52583805 339.29841487 -147.47323011 305.1661085 -156.37084961 271.07519531 C-156.81282886 269.02999308 -156.81282886 269.02999308 -158 268 C-159.71865409 267.9064081 -161.44115744 267.88255389 -163.16235352 267.88647461 C-164.81395226 267.88658791 -164.81395226 267.88658791 -166.49891663 267.88670349 C-168.29576149 267.89444542 -168.29576149 267.89444542 -170.12890625 267.90234375 C-171.34827377 267.9037587 -172.5676413 267.90517365 -173.82395935 267.90663147 C-177.7368307 267.91225033 -181.64964581 267.92480604 -185.5625 267.9375 C-188.20768147 267.94251257 -190.85286383 267.9470759 -193.49804688 267.95117188 C-199.99871726 267.96222589 -206.49935461 267.97898236 -213 268 Z M-140 268 C-136.61694158 281.69948022 -136.61694158 281.69948022 -132.25 295 C-131.90710938 295.93005859 -131.56421875 296.86011719 -131.2109375 297.81835938 C-128.04807256 306.2045688 -124.27961609 314.13436077 -120 322 C-119.68063477 322.60247559 -119.36126953 323.20495117 -119.03222656 323.82568359 C-114.18098401 332.95931741 -108.52834327 340.99133093 -102 349 C-101.57589844 349.52416504 -101.15179688 350.04833008 -100.71484375 350.58837891 C-94.29089034 358.44068862 -84.72501367 367.75832878 -75 371 C-75.17813232 370.46560303 -75.35626465 369.93120605 -75.53979492 369.38061523 C-76.06907554 367.79277339 -76.5979274 366.20478859 -77.12646484 364.61669922 C-77.68352873 362.94799861 -78.24345205 361.28024794 -78.80712891 359.61376953 C-88.91577076 329.63071736 -93.54189078 299.20676453 -98 268 C-111.86 268 -125.72 268 -140 268 Z M-81 268 C-79.30572279 285.21044266 -79.30572279 285.21044266 -76.75 302.25 C-76.53456543 303.47380371 -76.31913086 304.69760742 -76.09716797 305.95849609 C-69.68806828 346.19237165 -69.68806828 346.19237165 -48 379 C-44.66688994 379.39837969 -42.77487198 379.51707236 -39.9453125 377.62890625 C-17.11072802 351.70724275 -9 301.58463827 -9 268 C-32.76 268 -56.52 268 -81 268 Z M8 268 C7.113125 274.105 6.22625 280.21 5.3125 286.5 C1.38155429 312.93222116 -3.12420044 339.32884019 -13.25952148 364.20507812 C-13.89206171 365.78338865 -14.45337901 367.38991406 -15 369 C-14.67 369.66 -14.34 370.32 -14 371 C2.70885214 362.37491218 15.4146486 346.83338471 25 331 C25.63494385 329.97084473 25.63494385 329.97084473 26.28271484 328.92089844 C36.19285358 312.68250854 50 287.45130233 50 268 C36.14 268 22.28 268 8 268 Z M68 268 C65.6633934 274.97774679 65.6633934 274.97774679 63.45703125 281.98828125 C53.8659508 313.18265711 41.07640945 343.28257918 18 367 C18.66 367.33 19.32 367.66 20 368 C22.77787896 366.96057483 25.43087382 365.85319639 28.125 364.625 C29.33518799 364.07634277 29.33518799 364.07634277 30.56982422 363.51660156 C44.93852632 356.89095519 57.66432397 348.9048775 70 339 C70.92474121 338.2589502 70.92474121 338.2589502 71.86816406 337.50292969 C94.02462571 319.5622352 110.97338343 296.83495412 123 271 C123 270.01 123 269.02 123 268 C104.85 268 86.7 268 68 268 Z " fill="#000000" transform="translate(301,60)"/>
<path d="M0 0 C3.69203018 3.05680271 5.02801206 6.02845597 6.578125 10.515625 C6.90257599 11.4393692 6.90257599 11.4393692 7.23358154 12.3817749 C7.916597 14.33426579 8.58347019 16.29182787 9.25 18.25 C9.71248345 19.58109731 10.17601455 20.91183111 10.640625 22.2421875 C11.77077333 25.49136396 12.89009761 28.74386351 14 32 C14.55429687 30.92878906 15.10859375 29.85757813 15.6796875 28.75390625 C16.41115655 27.35661281 17.14294389 25.95948596 17.875 24.5625 C18.23980469 23.85544922 18.60460937 23.14839844 18.98046875 22.41992188 C21.7734375 17.11328125 21.7734375 17.11328125 24 16 C31.30623945 15.41078714 31.30623945 15.41078714 33.92626953 17.63598633 C36.29885859 20.34069317 37.69956274 23.00817664 39.25 26.25 C40.03117187 27.86648437 40.03117187 27.86648437 40.828125 29.515625 C41.21484375 30.33546875 41.6015625 31.1553125 42 32 C42.28198242 31.17274414 42.56396484 30.34548828 42.85449219 29.49316406 C43.91127939 26.41108444 44.97847005 23.33286322 46.05273438 20.25683594 C46.5145888 18.92754903 46.97233 17.59682529 47.42578125 16.26464844 C48.08023919 14.34433105 48.74956628 12.42975474 49.421875 10.515625 C49.81987305 9.36352539 50.21787109 8.21142578 50.62792969 7.02441406 C52.04076872 3.91013472 53.38141356 2.16804894 56 0 C59.84435972 -1.02115805 63.08273462 -0.52742759 66.5 1.4375 C69.07351543 5.83392219 68.53710837 10.62744647 67.4324646 15.50695801 C66.62904237 18.21341885 65.74636179 20.87854497 64.82421875 23.546875 C64.4983931 24.52110413 64.17256744 25.49533325 63.83686829 26.49908447 C63.14966197 28.54500141 62.45596396 30.58874821 61.75610352 32.63037109 C60.68750489 35.74998573 59.64002532 38.87609137 58.59570312 42.00390625 C57.92309872 43.99780905 57.24931109 45.99131319 56.57421875 47.984375 C56.1052845 49.37979523 56.1052845 49.37979523 55.62687683 50.80340576 C51.72406398 62.13796801 51.72406398 62.13796801 48 64 C40.75137801 64.58456629 40.75137801 64.58456629 37.9765625 62.42578125 C35.5628479 59.46349514 33.89466091 56.2984358 32.25 52.875 C31.77626953 51.92560547 31.77626953 51.92560547 31.29296875 50.95703125 C29 46.28175731 29 46.28175731 29 44 C28.34 44 27.68 44 27 44 C26.7421875 44.84949219 26.484375 45.69898438 26.21875 46.57421875 C24.92902794 50.19949517 23.32602922 53.42738227 21.5 56.8125 C20.8915625 57.95332031 20.283125 59.09414063 19.65625 60.26953125 C18 63 18 63 16 64 C8.76880545 64.58316085 8.76880545 64.58316085 6.08203125 62.54516602 C3.16228542 58.97594107 2.03388749 55.20014443 0.6171875 50.8515625 C0.31684601 49.96141449 0.01650452 49.07126648 -0.29293823 48.15414429 C-1.24812694 45.31469577 -2.18674799 42.47008433 -3.125 39.625 C-3.76323646 37.71838597 -4.40254807 35.81213148 -5.04296875 33.90625 C-6.47470603 29.63794016 -7.89662796 25.36653917 -9.30654907 21.0909729 C-9.91883004 19.24475298 -10.54525801 17.40323778 -11.17382812 15.5625 C-12.43331877 11.65599475 -12.59989741 8.05315299 -12 4 C-9.33965416 -0.54475748 -4.91183732 -1.30470679 0 0 Z " fill="#000000" transform="translate(340,224)"/>
<path d="M0 0 C3.69203018 3.05680271 5.02801206 6.02845597 6.578125 10.515625 C6.90257599 11.4393692 6.90257599 11.4393692 7.23358154 12.3817749 C7.916597 14.33426579 8.58347019 16.29182787 9.25 18.25 C9.71248345 19.58109731 10.17601455 20.91183111 10.640625 22.2421875 C11.77077333 25.49136396 12.89009761 28.74386351 14 32 C14.55429688 30.92878906 15.10859375 29.85757813 15.6796875 28.75390625 C16.41115655 27.35661281 17.14294389 25.95948596 17.875 24.5625 C18.23980469 23.85544922 18.60460937 23.14839844 18.98046875 22.41992188 C21.7734375 17.11328125 21.7734375 17.11328125 24 16 C31.30623945 15.41078714 31.30623945 15.41078714 33.92626953 17.63598633 C36.29885859 20.34069317 37.69956274 23.00817664 39.25 26.25 C40.03117187 27.86648437 40.03117187 27.86648437 40.828125 29.515625 C41.21484375 30.33546875 41.6015625 31.1553125 42 32 C42.28198242 31.17274414 42.56396484 30.34548828 42.85449219 29.49316406 C43.91127939 26.41108444 44.97847005 23.33286322 46.05273438 20.25683594 C46.5145888 18.92754903 46.97233 17.59682529 47.42578125 16.26464844 C48.08023919 14.34433105 48.74956628 12.42975474 49.421875 10.515625 C49.81987305 9.36352539 50.21787109 8.21142578 50.62792969 7.02441406 C52.04076872 3.91013472 53.38141356 2.16804894 56 0 C59.84435972 -1.02115805 63.08273462 -0.52742759 66.5 1.4375 C69.07351543 5.83392219 68.53710837 10.62744647 67.4324646 15.50695801 C66.62904237 18.21341885 65.74636179 20.87854497 64.82421875 23.546875 C64.4983931 24.52110413 64.17256744 25.49533325 63.83686829 26.49908447 C63.14966197 28.54500141 62.45596396 30.58874821 61.75610352 32.63037109 C60.68750489 35.74998573 59.64002532 38.87609137 58.59570312 42.00390625 C57.92309872 43.99780905 57.24931109 45.99131319 56.57421875 47.984375 C56.1052845 49.37979523 56.1052845 49.37979523 55.62687683 50.80340576 C51.72406398 62.13796801 51.72406398 62.13796801 48 64 C40.75137801 64.58456629 40.75137801 64.58456629 37.9765625 62.42578125 C35.5628479 59.46349514 33.89466091 56.2984358 32.25 52.875 C31.77626953 51.92560547 31.77626953 51.92560547 31.29296875 50.95703125 C29 46.28175731 29 46.28175731 29 44 C28.34 44 27.68 44 27 44 C26.7421875 44.84949219 26.484375 45.69898438 26.21875 46.57421875 C24.92902794 50.19949517 23.32602922 53.42738227 21.5 56.8125 C20.8915625 57.95332031 20.283125 59.09414063 19.65625 60.26953125 C18 63 18 63 16 64 C8.76880545 64.58316085 8.76880545 64.58316085 6.08203125 62.54516602 C3.16228542 58.97594107 2.03388749 55.20014443 0.6171875 50.8515625 C0.31684601 49.96141449 0.01650452 49.07126648 -0.29293823 48.15414429 C-1.24812694 45.31469577 -2.18674799 42.47008433 -3.125 39.625 C-3.76323646 37.71838597 -4.40254807 35.81213148 -5.04296875 33.90625 C-6.47470603 29.63794016 -7.89662796 25.36653917 -9.30654907 21.0909729 C-9.91883004 19.24475298 -10.54525801 17.40323778 -11.17382812 15.5625 C-12.43331877 11.65599475 -12.59989741 8.05315299 -12 4 C-9.33965416 -0.54475748 -4.91183732 -1.30470679 0 0 Z " fill="#000000" transform="translate(228,224)"/>
<path d="M0 0 C3.69203018 3.05680271 5.02801206 6.02845597 6.578125 10.515625 C6.90257599 11.4393692 6.90257599 11.4393692 7.23358154 12.3817749 C7.916597 14.33426579 8.58347019 16.29182787 9.25 18.25 C9.71248345 19.58109731 10.17601455 20.91183111 10.640625 22.2421875 C11.77077333 25.49136396 12.89009761 28.74386351 14 32 C14.55429688 30.92878906 15.10859375 29.85757813 15.6796875 28.75390625 C16.41115655 27.35661281 17.14294389 25.95948596 17.875 24.5625 C18.23980469 23.85544922 18.60460937 23.14839844 18.98046875 22.41992188 C21.7734375 17.11328125 21.7734375 17.11328125 24 16 C31.30623945 15.41078714 31.30623945 15.41078714 33.92626953 17.63598633 C36.29885859 20.34069317 37.69956274 23.00817664 39.25 26.25 C40.03117187 27.86648437 40.03117187 27.86648437 40.828125 29.515625 C41.21484375 30.33546875 41.6015625 31.1553125 42 32 C42.28198242 31.17274414 42.56396484 30.34548828 42.85449219 29.49316406 C43.91127939 26.41108444 44.97847005 23.33286322 46.05273438 20.25683594 C46.5145888 18.92754903 46.97233 17.59682529 47.42578125 16.26464844 C48.08023919 14.34433105 48.74956628 12.42975474 49.421875 10.515625 C49.81987305 9.36352539 50.21787109 8.21142578 50.62792969 7.02441406 C52.04076872 3.91013472 53.38141356 2.16804894 56 0 C59.84435972 -1.02115805 63.08273462 -0.52742759 66.5 1.4375 C69.07351543 5.83392219 68.53710837 10.62744647 67.4324646 15.50695801 C66.62904237 18.21341885 65.74636179 20.87854497 64.82421875 23.546875 C64.4983931 24.52110413 64.17256744 25.49533325 63.83686829 26.49908447 C63.14966197 28.54500141 62.45596396 30.58874821 61.75610352 32.63037109 C60.68750489 35.74998573 59.64002532 38.87609137 58.59570312 42.00390625 C57.92309872 43.99780905 57.24931109 45.99131319 56.57421875 47.984375 C56.1052845 49.37979523 56.1052845 49.37979523 55.62687683 50.80340576 C51.72406398 62.13796801 51.72406398 62.13796801 48 64 C40.75137801 64.58456629 40.75137801 64.58456629 37.9765625 62.42578125 C35.5628479 59.46349514 33.89466091 56.2984358 32.25 52.875 C31.77626953 51.92560547 31.77626953 51.92560547 31.29296875 50.95703125 C29 46.28175731 29 46.28175731 29 44 C28.34 44 27.68 44 27 44 C26.7421875 44.84949219 26.484375 45.69898438 26.21875 46.57421875 C24.92902794 50.19949517 23.32602922 53.42738227 21.5 56.8125 C20.8915625 57.95332031 20.283125 59.09414063 19.65625 60.26953125 C18 63 18 63 16 64 C8.76880545 64.58316085 8.76880545 64.58316085 6.08203125 62.54516602 C3.16228542 58.97594107 2.03388749 55.20014443 0.6171875 50.8515625 C0.31684601 49.96141449 0.01650452 49.07126648 -0.29293823 48.15414429 C-1.24812694 45.31469577 -2.18674799 42.47008433 -3.125 39.625 C-3.76323646 37.71838597 -4.40254807 35.81213148 -5.04296875 33.90625 C-6.47470603 29.63794016 -7.89662796 25.36653917 -9.30654907 21.0909729 C-9.91883004 19.24475298 -10.54525801 17.40323778 -11.17382812 15.5625 C-12.43331877 11.65599475 -12.59989741 8.05315299 -12 4 C-9.33965416 -0.54475748 -4.91183732 -1.30470679 0 0 Z " fill="#000000" transform="translate(116,224)"/>
</svg>
