<?xml version="1.0" encoding="utf-8"?>
<!-- Generator: Adobe Illustrator 24.1.1, SVG Export Plug-In . SVG Version: 6.00 Build 0)  -->
<svg version="1.1" id="bybit" xmlns="http://www.w3.org/2000/svg" xmlns:xlink="http://www.w3.org/1999/xlink" x="0px" y="0px"
	 viewBox="0 0 500 500" style="enable-background:new 0 0 500 500;" xml:space="preserve">
<style type="text/css">
	.st0{fill:#333333;}
	.st1{fill:#FEFEFE;}
	.st2{fill:#EEB70B;}
	.st3{fill:#EDB70B;}
	.st4{fill:#EFB80B;}
</style>
<path class="st0" d="M-101.28,599.91c0-233.73,0-467.47,0-701.2c233.73,0,467.46,0,701.2,0c0,233.62,0,467.24,0,701.2
	C365.63,599.91,132.17,599.91-101.28,599.91z M102.6,155.71c18.04,17.93,35.94,35.71,54.11,53.77c30.28-30.31,61-61.08,92.73-92.85
	c31.44,31.57,62.25,62.51,91.81,92.19c18.28-18.28,36.25-36.24,53.17-53.15c-48.2-48.2-97.17-97.17-145.89-145.89
	C200.28,58.02,151.42,106.89,102.6,155.71z M248.85,489.12c49-48.99,97.98-97.96,146.2-146.18c-17.49-17.53-35.44-35.52-53.92-54.04
	c-30.17,30.25-60.89,61.04-92.14,92.37c-31.1-31.15-61.82-61.91-91.98-92.11c-18.28,18.43-36.18,36.48-53.84,54.27
	C151.4,391.67,200.27,440.54,248.85,489.12z M436.52,196.09c-18.22,18.15-36.22,36.08-53.26,53.06
	c17.54,17.53,35.52,35.5,52.54,52.51c17.43-17.28,35.49-35.19,53.34-52.89C471.68,231.29,453.82,213.41,436.52,196.09z M9.95,248.4
	c17.93,17.93,35.88,35.88,53.12,53.12c17.17-17.11,35.04-34.91,51.96-51.78c-17.55-17.54-35.51-35.49-53.22-53.19
	C44.73,213.63,27,231.35,9.95,248.4z M248.94,302.37c17.83-17.82,35.65-35.65,52.62-52.61c-17.49-17.47-35.44-35.4-52.37-52.3
	c-17.16,17.14-35,34.95-52.49,52.42C213.77,267.02,231.43,284.78,248.94,302.37z"/>
<path class="st1" d="M-101.28,599.91c233.46,0,466.91,0,701.2,0c0-233.96,0-467.58,0-701.2c0.46,1.83,1.3,3.65,1.31,5.48
	c0.09,27.16,0.06,54.32,0.06,81.49c0,205.2,0,410.4,0,615.6c-232.13,0-464.27,0-696.4-0.06
	C-97.18,601.23-99.23,600.37-101.28,599.91z"/>
<path class="st2" d="M102.6,155.71c48.82-48.82,97.68-97.69,145.93-145.93c48.72,48.72,97.69,97.69,145.89,145.89
	c-16.92,16.91-34.89,34.87-53.17,53.15c-29.56-29.68-60.37-60.62-91.81-92.19c-31.73,31.77-62.46,62.53-92.73,92.85
	C138.54,191.42,120.64,173.63,102.6,155.71z"/>
<path class="st2" d="M248.85,489.12c-48.58-48.58-97.44-97.45-145.67-145.68c17.65-17.8,35.55-35.84,53.84-54.27
	c30.16,30.2,60.88,60.96,91.98,92.11c31.25-31.33,61.97-62.12,92.14-92.37c18.47,18.51,36.43,36.51,53.92,54.04
	C346.82,391.16,297.85,440.13,248.85,489.12z"/>
<path class="st3" d="M436.52,196.09c17.3,17.32,35.16,35.2,52.63,52.68c-17.85,17.7-35.91,35.6-53.34,52.89
	c-17.02-17.01-35-34.98-52.54-52.51C400.3,232.18,418.3,214.25,436.52,196.09z"/>
<path class="st3" d="M9.95,248.4c17.05-17.04,34.77-34.77,51.86-51.85c17.71,17.7,35.67,35.65,53.22,53.19
	c-16.93,16.87-34.79,34.67-51.96,51.78C45.83,284.28,27.88,266.33,9.95,248.4z"/>
<path class="st4" d="M248.94,302.37c-17.51-17.59-35.17-35.34-52.23-52.49c17.49-17.47,35.32-35.28,52.49-52.42
	c16.92,16.9,34.87,34.83,52.37,52.3C284.59,266.72,266.76,284.54,248.94,302.37z"/>
</svg>
