<?xml version="1.0" encoding="utf-8"?>
<!-- Generator: Adobe Illustrator 24.1.1, SVG Export Plug-In . SVG Version: 6.00 Build 0)  -->
<svg version="1.1" id="Capa_1" xmlns="http://www.w3.org/2000/svg" xmlns:xlink="http://www.w3.org/1999/xlink" x="0px" y="0px"
	 viewBox="0 0 200 200" style="enable-background:new 0 0 200 200;" xml:space="preserve">
<style type="text/css">
	.st0{fill:#9D9D9C;}
</style>
<path class="st0" d="M100,8.9C49.69,8.9,8.9,49.69,8.9,100s40.79,91.1,91.1,91.1s91.1-40.79,91.1-91.1S150.31,8.9,100,8.9z
	 M132.55,147.16c-4.93,5.27-11.56,8.67-19.89,10.37v12.75l-23.97,6.63v-19.04c-5.61-0.85-11.05-2.21-15.98-4.42
	c-4.93-2.04-9.52-4.59-13.77-7.48l10.03-22.27c4.93,3.06,9.69,5.44,14.11,7.14c4.42,1.7,8.67,2.55,12.92,2.55
	c3.74,0,6.97-0.68,9.69-2.04c2.72-1.36,4.08-3.74,4.08-6.97c0-3.06-1.7-5.78-5.1-7.99c-3.4-2.21-8.67-4.93-15.81-7.99
	c-9.01-3.91-15.64-8.5-19.89-13.6c-4.25-4.93-6.29-11.39-6.29-19.21c0-7.99,2.38-14.45,7.14-19.55c4.76-5.1,11.22-8.5,19.21-10.2
	V27.99H113v17.68c4.08,0.85,8.16,2.04,12.07,3.57c3.91,1.53,7.82,3.57,11.73,5.95l-10.37,21.93c-3.06-1.53-6.46-3.23-10.37-4.76
	s-8.5-2.21-13.6-2.21c-7.14,0-10.71,2.21-10.71,6.63c0,1.53,0.51,2.89,1.36,4.08c0.85,1.19,2.72,2.55,5.27,3.91
	c2.55,1.36,6.46,3.23,11.39,5.44c10.54,4.76,18.19,9.86,23.12,15.3c4.76,5.44,7.14,12.07,7.14,20.06
	C140.03,134.75,137.48,141.89,132.55,147.16z"/>
</svg>
