<?xml version="1.0" encoding="utf-8"?>
<!-- Generator: Adobe Illustrator 24.1.1, SVG Export Plug-In . SVG Version: 6.00 Build 0)  -->
<svg version="1.1" id="Capa_1" xmlns="http://www.w3.org/2000/svg" xmlns:xlink="http://www.w3.org/1999/xlink" x="0px" y="0px"
	 viewBox="0 0 100 100" style="enable-background:new 0 0 100 100;" xml:space="preserve">
<style type="text/css">
	.st0{fill:#706F6F;}
</style>
<path class="st0" d="M50,1.46C23.19,1.46,1.46,23.19,1.46,50S23.19,98.54,50,98.54S98.54,76.81,98.54,50S76.81,1.46,50,1.46z
	 M57.21,87.93c-10.28,0-19.54-4.06-25.52-11.62c-3.61-4.18-6.1-9.83-7.11-16.83h-7.23V52.6h6.32v-1.81c0-1.35,0.12-2.82,0.23-4.06
	h-6.55v-7h7.57c1.35-6.89,4.4-12.76,8.46-17.05c6.1-6.78,14.34-10.61,24.39-10.61c6.77,0,12.42,1.69,16.15,3.5l-2.83,10.5
	c-2.93-1.59-7.56-3.05-12.64-3.05c-5.65,0-10.62,2.03-14.34,6.21c-2.37,2.48-4.07,6.21-4.97,10.5h29.58v7H37.79
	c-0.23,1.24-0.23,2.59-0.23,3.95v1.92h31.16v6.88H38.8c0.79,4.86,2.49,8.47,4.86,11.07c3.84,4.17,9.26,6.09,15.13,6.09
	c5.53,0,10.72-1.92,13.32-3.38l2.37,10.16C70.75,85.68,64.43,87.93,57.21,87.93z"/>
</svg>
