<?xml version="1.0" encoding="utf-8"?>
<!-- Generator: Adobe Illustrator 24.1.1, SVG Export Plug-In . SVG Version: 6.00 Build 0)  -->
<svg version="1.1" id="Capa_1" xmlns="http://www.w3.org/2000/svg" xmlns:xlink="http://www.w3.org/1999/xlink" x="0px" y="0px"
	 viewBox="0 0 200 200" style="enable-background:new 0 0 200 200;" xml:space="preserve">
<style type="text/css">
	.st0{fill:none;stroke:#1D1D1B;stroke-width:3;stroke-miterlimit:10;}
</style>
<g>
	<path d="M40.91,58.59c0-0.75,0.2-1.34,0.6-1.78c0.4-0.44,0.97-0.67,1.71-0.67h34.91c3.08,0,5.99,0.59,8.73,1.78
		c2.73,1.19,5.13,2.82,7.18,4.9s3.67,4.51,4.86,7.3c1.19,2.79,1.79,5.78,1.79,8.98c0,2.66-0.41,5.14-1.24,7.43
		c-0.82,2.29-1.99,4.34-3.5,6.15c2.52,2.34,4.52,5.13,5.99,8.36c1.47,3.23,2.21,6.66,2.21,10.28c0,3.23-0.61,6.29-1.84,9.19
		c-1.23,2.89-2.88,5.43-4.97,7.62c-2.09,2.18-4.52,3.91-7.31,5.19c-2.79,1.28-5.72,1.92-8.81,1.92H43.22c-0.7,0-1.26-0.19-1.68-0.56
		s-0.63-0.95-0.63-1.73V58.59z M80.5,79.57c0-1.07-0.19-2.06-0.58-2.98c-0.39-0.92-0.93-1.74-1.63-2.45
		c-0.7-0.71-1.55-1.27-2.53-1.68c-0.98-0.41-2.06-0.61-3.22-0.61H61.25V87.3h11.12c1.19,0,2.29-0.19,3.29-0.56
		c1-0.37,1.85-0.91,2.56-1.6s1.26-1.51,1.66-2.45C80.29,81.75,80.5,80.71,80.5,79.57z M83.28,110.52c0-1.07-0.2-2.13-0.61-3.2
		s-0.97-2.02-1.69-2.85c-0.72-0.83-1.58-1.52-2.58-2.05c-1-0.53-2.08-0.8-3.24-0.8H61.25v17.79h13.91c1.16,0,2.23-0.25,3.21-0.75
		c0.98-0.5,1.85-1.16,2.58-2c0.74-0.83,1.31-1.78,1.71-2.85S83.28,111.66,83.28,110.52z"/>
	<path d="M122.92,114.2c0.95,0.96,1.97,1.77,3.07,2.42c1.11,0.66,2.16,1.19,3.18,1.6c1.02,0.41,1.91,0.7,2.68,0.88
		c0.77,0.18,1.29,0.27,1.58,0.27c0.67,0,1.52-0.03,2.55-0.08c1.03-0.05,2.02-0.21,2.97-0.48c0.95-0.27,1.76-0.7,2.45-1.31
		c0.68-0.6,1.03-1.46,1.03-2.56c0-0.99-0.19-1.78-0.58-2.37c-0.39-0.59-0.95-1.08-1.68-1.49c-0.74-0.41-1.64-0.77-2.71-1.09
		s-2.27-0.69-3.6-1.12c-4.21-1.14-7.67-2.5-10.41-4.1c-2.73-1.6-4.9-3.38-6.49-5.35c-1.6-1.97-2.71-4.09-3.34-6.37
		c-0.63-2.27-0.95-4.67-0.95-7.19c0-2.95,0.58-5.63,1.73-8.04c1.16-2.41,2.8-4.48,4.94-6.21s4.7-3.05,7.68-4
		c2.98-0.94,6.29-1.41,9.94-1.41c2.21,0,4.28,0.19,6.2,0.56c1.93,0.37,3.77,0.96,5.52,1.76s3.46,1.83,5.13,3.09
		c1.66,1.26,3.32,2.76,4.97,4.5c0.6,0.71,0.9,1.38,0.92,2c0.02,0.62-0.38,1.29-1.18,2c-1.37,1.14-2.67,2.26-3.92,3.36
		c-1.24,1.1-2.53,2.33-3.86,3.68c-0.42,0.36-0.84,0.58-1.26,0.67s-0.82,0.08-1.21-0.03c-0.39-0.11-0.75-0.28-1.1-0.53
		c-0.35-0.25-0.67-0.55-0.95-0.91c-1.23-1.38-2.63-2.32-4.21-2.8c-1.58-0.48-3.05-0.72-4.42-0.72c-1.72,0-3.09,0.3-4.1,0.91
		c-1.02,0.6-1.49,1.53-1.42,2.77c0.07,0.92,0.41,1.64,1.03,2.16c0.61,0.52,1.37,0.93,2.26,1.25c0.89,0.32,1.84,0.58,2.84,0.77
		c1,0.2,1.92,0.42,2.76,0.67c3.15,1.03,6.05,2.15,8.68,3.36c2.63,1.21,4.91,2.69,6.83,4.45s3.43,3.86,4.49,6.31
		c1.07,2.45,1.6,5.43,1.6,8.95s-0.69,6.66-2.08,9.43s-3.29,5.1-5.7,6.98c-2.42,1.88-5.29,3.32-8.6,4.31
		c-3.31,0.99-6.88,1.49-10.7,1.49c-2.17,0-4.38-0.2-6.63-0.59s-4.42-1.02-6.52-1.89c-2.1-0.87-4.1-1.99-5.99-3.36
		s-3.57-3.03-5.05-4.98c-0.39-0.5-0.68-1.02-0.87-1.57c-0.19-0.55-0.28-1.09-0.26-1.63c0.02-0.53,0.12-1.02,0.32-1.46
		c0.19-0.44,0.5-0.83,0.92-1.14l6.78-6.87c0.84-0.71,1.59-0.96,2.23-0.75S121.9,113.2,122.92,114.2z"/>
</g>
<circle class="st0" cx="100" cy="100" r="93.17"/>
</svg>
